<svg xmlns="http://www.w3.org/2000/svg" xmlns:xlink="http://www.w3.org/1999/xlink" viewBox="0 0 461.89 402.7" width="406" height="306" xmlns:v="https://vecta.io/nano"><style><![CDATA[.B{fill:#25357f}.C{fill:#f2ddca}.D{fill:#606161}]]></style><defs><linearGradient id="A" x1="261.71" y1="350.25" x2="219.4" y2="408.94" gradientUnits="userSpaceOnUse"><stop offset="0" stop-color="#010101" stop-opacity="0"/><stop offset=".95" stop-color="#010101"/></linearGradient><linearGradient id="B" x1="285.83" y1="107.59" x2="279.01" y2="160.49" xlink:href="#A"/><linearGradient id="C" x1="326.47" y1="301.88" x2="329.2" y2="370.82" xlink:href="#A"/><linearGradient id="D" x1="333.28" y1="362.76" x2="322.03" y2="362.76" gradientUnits="userSpaceOnUse"><stop offset="0" stop-color="#fff" stop-opacity="0"/><stop offset=".95" stop-color="#fff"/></linearGradient><linearGradient id="E" x1="411.6" y1="231.93" x2="232.1" y2="246.94" xlink:href="#A"/><linearGradient id="F" x1="223.12" y1="195.79" x2="292.4" y2="157.23" xlink:href="#A"/><linearGradient id="G" x1="229.81" y1="201.3" x2="345.83" y2="178.78" xlink:href="#A"/><linearGradient id="H" x1="133" y1="207.94" x2="133.76" y2="235.58" xlink:href="#A"/><linearGradient id="I" x1="154.99" y1="357.57" x2="167.96" y2="120.74" xlink:href="#A"/><linearGradient id="J" x1="115.65" y1="206.1" x2="119.06" y2="95.54" xlink:href="#D"/><linearGradient id="K" x1="141.78" y1="187.74" x2="77.03" y2="201.05" xlink:href="#D"/><linearGradient id="L" x1="270.39" y1="101.64" x2="271.75" y2="210.16" xlink:href="#A"/><linearGradient id="M" x1="266.88" y1="80.44" x2="263.47" y2="142.21" xlink:href="#A"/><linearGradient id="N" x1="246.05" y1="106.72" x2="240.42" y2="135.38" xlink:href="#A"/><linearGradient id="O" x1="311.74" y1="150.61" x2="145.38" y2="222.27" xlink:href="#A"/><path id="P" d="M251.11 391.45a1.53 1.53 0 0 1-1.54 2c-11.84 2-23.94 1.3-35.92.63-.92-5.2 3.23-10.11 8-12.36s10.19-2.65 15.28-4a34.91 34.91 0 0 1 6.49-1.51c9.33-.74 7.38 8.8 7.69 15.24z"/><path id="Q" d="M264.52 143.36c4.93 6.2 8.54 13.95 11.74 20.62a140.81 140.81 0 0 1 13 44.47c1.06 9.18 1 18.57 2.06 27.92.17 1.45 3 17.83 1.79 18.35 0 0-19.06 6.83-47.93 7.22-3.09 0-13.44 1.62-15.29-1.74-1.17-2.12 1-8.88 1.15-11.22 1.17-13.61.92-20.59 1.33-34.24.15-5-8.07-25.62-10.38-28.23-3.05-3.44-4.15-8.31-3.72-12.89.38-4.14 2.57-7.48 3.38-11.41.75-3.57.39-7.06 1.57-10.68 3.91-11.87 14.6-21.79 27.81-19.5 7.07 1.23 9.12 5.84 13.49 11.33z"/><path id="R" d="M104.34 167.65h13.34a8.94 8.94 0 0 1 8.94 8.94v42.24a0 0 0 0 1 0 0H95.4a0 0 0 0 1 0 0v-42.24a8.94 8.94 0 0 1 8.94-8.94z"/><path id="S" d="M255.56 116.09c-1.49-1.16-2 0-2 0-.8 1.43-5.4 7.85-15.37 10.71a4.89 4.89 0 0 0-3.57-1.28c-2.24 0-4.05 1.07-4.05 2.39s1.81 2.4 4.05 2.4 4-1.06 4.05-2.38c3.49-1.07 12.19-4.31 16.89-11.84z"/><path id="T" d="M274.4 187.64c6.37 7.08 14.65 12.74 24 14.56a2.28 2.28 0 0 0 3.18-1.76c2.82-7.49 2.25-15.88.31-23.65s-5.16-15.15-7.65-22.76c-3-9.29-16.76-34.33-17.8-34.33-3.72 0-7.34 4.09-9.55 6.65.36 8.52 7.08 14.77 8.36 23.21-1-4.68-7.85-10-12.12-12.13-1.78-.9-9.46-5.74-11.09-4.59-1.27.89 3.66 6.86 3.37 8.39-3.07 16.14 8.6 34.86 18.99 46.41z"/></defs><path d="M205.33 399.09c52.21-.76 104.57-1.53 156.34-8.4 12.92-1.72 26.27-4 37-11.41 9.18-6.35 15.62-15.93 20.78-25.83 8-15.4 13.57-32.49 13.17-49.86-.46-20.21-8.86-39.84-7.63-60 1.34-21.72 13.54-41 22.75-60.69 9.61-20.55 16.29-43.25 13.54-65.77-3.91-32-26.78-59.44-54.48-76s-59.9-23.85-91.73-29.21A851 851 0 0 0 194.6.09c-19.34-.42-39.34 0-57.16 7.46-16.56 6.97-30.05 19.54-42.47 32.54a521.54 521.54 0 0 0-79.06 107.37c-8.11 14.62-15.68 30.3-15.9 47-.38 28.65 20.31 52.63 31.57 79 10.68 24.9 11.81 51.17 6.68 77.49-3.51 18.12-9 37.42 11.32 46.77 19.87 9.15 50.38 2.94 71.48 2.63z" fill="#ff9800" opacity=".4"/><use xlink:href="#P" class="B"/><use xlink:href="#P" x="29.74" y="1.91" transform="translate(-29.74 -1.91)" fill="url(#A)"/><path d="M215.26 110.42c-1.24-8.59-1.73-18.17 3.48-25.11 4.22-5.62 11.61-8.32 18.62-7.92s13.65 3.56 19.23 7.82a30.81 30.81 0 0 1 7.95 8.43c7.43 12.41 1.75 30.55 11.65 41.1 3.49 3.72 8.45 5.81 12 9.48a18.54 18.54 0 0 1-11.74 31.38c-5.41.46-10.72-1.46-16.1-2.18-8.61-1.16-17.39.73-26-.24s-18-6.26-19-14.88 6.41-16.19 5.76-24.71c-.46-5.91-4.67-10.75-7.36-16s-3.3-12.92 1.72-16.1" class="D"/><path d="M245,112.33c-1.24-8.59-1.73-18.17,3.48-25.11,4.22-5.62,11.61-8.32,18.62-7.92s13.65,3.56,19.23,7.82a30.81,30.81,0,0,1,7.95,8.43c7.43,12.41,1.75,30.55,11.65,41.1,3.49,3.72,8.45,5.81,12,9.48a18.54,18.54,0,0,1-11.74,31.38c-5.41.46-10.72-1.46-16.1-2.18-8.61-1.16-17.39.73-26-.24s-18-6.26-19-14.88,6.41-16.19,5.76-24.71c-.46-5.91-4.67-10.75-7.36-16s-3.3-12.92,1.72-16.1" transform="translate(-29.74 -1.91)" fill="url(#B)"/><path fill="#cce8ec" d="M299.11 383.08h-2.41v-3.87h2.41z"/><path d="M305.94 350.86h-16.07v-42.01h16.07z" class="B"/><path transform="matrix(-1 0 0 -1 625.56 661.61)" fill="url(#C)" d="M319.62 310.75h16.07v42.01h-16.07z"/><g class="B"><path d="M305.94 378.68h-16.07v-7.85h16.07z"/><path d="M303.53 371.06h-11.25v-20.43h11.25z"/></g><path transform="matrix(-1 0 0 -1 625.56 723.6)" fill="url(#D)" d="M322.03 352.54h11.25v20.43h-11.25z"/><path d="M334.53 379.33h-73.24v-3.9h73.24z" class="B"/><rect x="324.14" y="383.18" width="7.02" height="10.45" rx="1.41" transform="matrix(-1 0 0 -1 625.56 774.91)" fill="#2a2d6b"/><path d="M332.48 384.38h-2.41v-5.28h2.41zm-69.02-5.28h2.41v5.28h-2.41z" fill="#cce8ec"/><g fill="#2a2d6b"><circle cx="333.15" cy="387.08" r="5.21"/><circle cx="262.67" cy="386.74" r="5.21"/></g><path d="M362 171.98h-56.3a12.61 12.61 0 0 0-12.39 10.28l-22.78 121.5 65.54-5.46z" class="B"/><path d="M391.74,173.89h-56.3a12.61,12.61,0,0,0-12.39,10.28l-22.78,121.5,65.54-5.46Z" transform="translate(-29.74 -1.91)" fill="url(#E)"/><g class="B"><path d="M282.34 301.71a9.11 9.11 0 0 1 9.11-9.11h43.81l17.65-112.21a9.11 9.11 0 0 1 18.19.69c0 .92 0 2.62-19.08 122.06a9.11 9.11 0 0 1-9 7.67h-51.57a9.11 9.11 0 0 1-9.11-9.1zm70.56-120.62v-.61a5 5 0 0 0 0 .61z"/><path d="M236.45 310.81h61.07a9.11 9.11 0 0 0 0-18.21h-61.07a9.11 9.11 0 0 0-8.14 13.747 9.11 9.11 0 0 0 8.14 4.463z"/></g><g class="D"><path d="M294.68 254.03l-83.56 32.58c-2.68 10 23 92 23 92s8.55 5.47 18.61-1.09l-7.95-73.67 40.74-11.87s18.74-8.05 9.16-37.95z"/><path d="M239.87 252.5s-58 27.36-57.49 28.75 11.24 89.51 11.24 89.51 7.7 5.19 18.53 0l1.7-74.07 70.09-10.07s6.9-10.35 10.74-32.58c-7.55-6.02-52.77-2.26-54.81-1.54z"/></g><path d="M174.92 209.09s-11.76-3.43-16.38-3-14.78 5.47-15.74 5.88-2.25 2.7 7 1.87 12.84 6.16 19.68 4.72 8.47-5.57 8.47-5.57" class="C"/><path d="M228.15 139.66l-19.35 56-35.7 11.79s-3.53 2.53 1 11.42c0 0 35.84-.32 44.15-3.94s22.36-56.41 22.36-56.41" class="B"/><path d="M257.89,141.57l-19.35,56-35.7,11.79s-3.53,2.53,1,11.42c0,0,35.84-.32,44.15-3.94s22.36-56.41,22.36-56.41" transform="translate(-29.74 -1.91)" fill="url(#F)"/><use xlink:href="#Q" class="B"/><use xlink:href="#Q" x="29.74" y="1.91" transform="translate(-29.74 -1.91)" fill="url(#G)"/><path d="M231 248.98s-13.53 9.62-9.62 11.95c3.58 2.14 28.84 2.49 32.23 4.74s9.11 10.21 22.71 13.74 18.37-5.84 19.36-13.74a20.4 20.4 0 0 0-2.61-13.16c0 0-49.81 5.58-62.07-3.53z" fill="#effaff"/><path d="M92.33 213.44h81.79v5.38H92.33z" class="B"/><path fill="url(#H)" d="M92.33 213.44h81.79v5.38H92.33z"/><g class="B"><path d="M83.8 218.49h182.91v5.46H83.8z"/><path d="M84.82 223.59h145.49v174.06H84.82z"/></g><path fill="url(#I)" d="M84.82 223.59h145.49v174.06H84.82z"/><rect x="63.15" y="120.55" width="107.84" height="79.17" rx="10.31" class="B"/><rect x="63.15" y="120.55" width="107.84" height="79.17" rx="10.31" fill="url(#J)"/><use xlink:href="#R" class="B"/><use xlink:href="#R" fill="url(#K)"/><path d="M233.59 142.55a5.42 5.42 0 0 0 .32 2 3.75 3.75 0 0 0 2.92 2.05 8.32 8.32 0 0 0 3.66-.43c5.35-1.63 10.3-5.93 10.9-11.49a16.54 16.54 0 0 0-.38-5 36.69 36.69 0 0 0-2.33-7.46c-1-2.25-2.48-4.63-4.89-5.05s-4.88 1.58-6.34 3.73c-4.19 6.08-4.03 14.55-3.86 21.65z" class="C"/><path d="M277.7 132.2a14.42 14.42 0 0 1-6.05 7.73 6.31 6.31 0 0 1-3.69.95c-2.2-.22-3.93-2.07-4.8-4.1a16.09 16.09 0 0 1-1.12-5.72 18.34 18.34 0 0 1 2.1-10.13c1.77-3 5-5.3 8.53-5.22 8.96.21 7.06 10.95 5.03 16.49z" transform="translate(-29.74 -1.91)" fill="url(#L)"/><path d="M218.26 97.87l2.09 13.22a71.73 71.73 0 0 0 2.91 13.26c1.24 3.43 3.15 6.83 6.32 8.63a11.92 11.92 0 0 0 10.35.31 19.36 19.36 0 0 0 8.05-6.88c5.07-7.21 6.47-16.47 5.73-25.25-.43-5.17-1.65-10.47-4.85-14.55a17.65 17.65 0 0 0-16-6.44c-8.51 1.2-15.91 9.1-14.6 17.7z" class="C"/><path d="M261.4 102.86a14.31 14.31 0 0 0-1.21-2.75 25.78 25.78 0 0 0 .31-4c0-13.763-11.157-24.92-24.92-24.92s-24.92 11.157-24.92 24.92a25.86 25.86 0 0 0 .33 4.06 15.22 15.22 0 0 0-1.18 2.71c-.58 1.58-.21 9.22.51 10.26 1.32 1.91 4.9 3.4 7.18 3.69a1.39 1.39 0 0 0 1.16.45 1.34 1.34 0 0 0 1.24-1.45l-1.25-13.74a1.36 1.36 0 0 0-1.49-1.2 1.41 1.41 0 0 0-.86.42h-.37a3.47 3.47 0 0 1-2.31-1.77 22.26 22.26 0 0 1-.27-3.39c0-12.46 9.95-21 22.23-21s22.23 8.56 22.23 21a21.43 21.43 0 0 1-.27 3.42 3.46 3.46 0 0 1-2.26 1.67h-.37a1.37 1.37 0 0 0-2.35.78l-1.25 13.74a1.35 1.35 0 0 0 1.24 1.45 1.39 1.39 0 0 0 1.16-.45c2.28-.29 5.86-1.78 7.18-3.69.72-.98 1.1-8.63.51-10.21z" class="B"/><path d="M291.14,104.77a14.31,14.31,0,0,0-1.21-2.75,25.78,25.78,0,0,0,.31-4,24.92,24.92,0,1,0-49.84,0,25.86,25.86,0,0,0,.33,4.06,15.22,15.22,0,0,0-1.18,2.71c-.58,1.58-.21,9.22.51,10.26,1.32,1.91,4.9,3.4,7.18,3.69a1.39,1.39,0,0,0,1.16.45,1.34,1.34,0,0,0,1.24-1.45l-1.25-13.74a1.36,1.36,0,0,0-1.49-1.2,1.41,1.41,0,0,0-.86.42l-.37,0a3.47,3.47,0,0,1-2.31-1.77,22.26,22.26,0,0,1-.27-3.39c0-12.46,9.95-21,22.23-21s22.23,8.56,22.23,21a21.43,21.43,0,0,1-.27,3.42,3.46,3.46,0,0,1-2.26,1.67l-.37,0a1.37,1.37,0,0,0-2.35.78l-1.25,13.74a1.35,1.35,0,0,0,1.24,1.45,1.39,1.39,0,0,0,1.16-.45c2.28-.29,5.86-1.78,7.18-3.69C291.35,114,291.73,106.35,291.14,104.77Z" transform="translate(-29.74 -1.91)" fill="url(#M)"/><use xlink:href="#S" class="B"/><use xlink:href="#S" x="29.74" y="1.91" transform="translate(-29.74 -1.91)" fill="url(#N)"/><path d="M222.04 91.84a21.18 21.18 0 0 1 2.5 2.91A15.47 15.47 0 0 0 242 98.96c2-.86 4.1-2.19 6.19-1.59a14.76 14.76 0 0 1 3.07 1.72c1 .59 2.41.89 3.32.14a2.92 2.92 0 0 0 .86-2.22c.1-3.1-1.8-5.86-3.61-8.37a24 24 0 0 0-5.2-5.74 16.14 16.14 0 0 0-5.63-2.38 24.73 24.73 0 0 0-15.64 1.47 13.35 13.35 0 0 0-4.76 3.31c-.8.94-2.27 3.18-1.83 4.52s2.17 1.09 3.27 2.02z" class="D"/><path d="M262.26 99.83a3.13 3.13 0 0 0-1.76-.62 2.24 2.24 0 0 0-1.81 1.58 6.59 6.59 0 0 0-.19 2.51l.63 11.48a17.51 17.51 0 0 0 .48 3.75c.9 3.24 3.52 5.66 6 7.89a8.28 8.28 0 0 0 3.72 2.28 5.61 5.61 0 0 0 5.26-2.37c6.76-8.69-5.13-22.09-12.33-26.5z" class="C"/><use xlink:href="#T" class="B"/><use xlink:href="#T" x="29.74" y="1.91" transform="translate(-29.74 -1.91)" fill="url(#O)"/></svg>